<?xml version="1.0" encoding="UTF-8"?>
<svg xmlns="http://www.w3.org/2000/svg" xmlns:xlink="http://www.w3.org/1999/xlink" viewBox="0 0 64 64" version="1.1" width="64px" height="64px">
<g id="surface1">
<path style=" fill:#F4BF98;" d="M 7 51 L 57 51 C 58.105469 51 59 51.894531 59 53 C 59 54.105469 58.105469 55 57 55 L 7 55 C 5.894531 55 5 54.105469 5 53 C 5 51.894531 5.894531 51 7 51 Z "/>
<path style=" fill:#F9E3AE;" d="M 9 41 L 5 19 L 21.941406 31 L 32 12 L 42 31 L 59 19 L 55 41 Z "/>
<path style=" fill:#F6D397;" d="M 32 12 L 42 31 L 59 19 L 55 41 L 32 41 Z "/>
<path style=" fill:#ED7899;" d="M 32 35.601563 L 28.511719 32.109375 L 32 26 L 35.488281 32.109375 Z "/>
<path style=" fill:#F994B3;" d="M 32 35.601563 L 32 26 L 35.488281 32.109375 Z "/>
<path style=" fill:#F6D397;" d="M 9 41 L 55 41 L 55 50 L 9 50 Z "/>
<path style=" fill:#FAEFDE;" d="M 61 18 C 61 19.105469 60.105469 20 59 20 C 57.894531 20 57 19.105469 57 18 C 57 16.894531 57.894531 16 59 16 C 60.105469 16 61 16.894531 61 18 Z "/>
<path style=" fill:#FAEFDE;" d="M 7 18 C 7 19.105469 6.105469 20 5 20 C 3.894531 20 3 19.105469 3 18 C 3 16.894531 3.894531 16 5 16 C 6.105469 16 7 16.894531 7 18 Z "/>
<path style=" fill:#FAEFDE;" d="M 34 11 C 34 12.105469 33.105469 13 32 13 C 30.894531 13 30 12.105469 30 11 C 30 9.894531 30.894531 9 32 9 C 33.105469 9 34 9.894531 34 11 Z "/>
<path style=" fill:#8D6C9F;" d="M 22 44 C 21.449219 44 21 44.449219 21 45 L 21 47 C 21 47.550781 21.449219 48 22 48 C 22.550781 48 23 47.550781 23 47 L 23 45 C 23 44.449219 22.550781 44 22 44 Z "/>
<path style=" fill:#8D6C9F;" d="M 17 44 C 16.449219 44 16 44.449219 16 45 L 16 47 C 16 47.550781 16.449219 48 17 48 C 17.550781 48 18 47.550781 18 47 L 18 45 C 18 44.449219 17.550781 44 17 44 Z "/>
<path style=" fill:#8D6C9F;" d="M 12 44 C 11.449219 44 11 44.449219 11 45 L 11 47 C 11 47.550781 11.449219 48 12 48 C 12.550781 48 13 47.550781 13 47 L 13 45 C 13 44.449219 12.550781 44 12 44 Z "/>
<path style=" fill:#8D6C9F;" d="M 27 44 C 26.449219 44 26 44.449219 26 45 L 26 47 C 26 47.550781 26.449219 48 27 48 C 27.550781 48 28 47.550781 28 47 L 28 45 C 28 44.449219 27.550781 44 27 44 Z "/>
<path style=" fill:#8D6C9F;" d="M 32 44 C 31.449219 44 31 44.449219 31 45 L 31 47 C 31 47.550781 31.449219 48 32 48 C 32.550781 48 33 47.550781 33 47 L 33 45 C 33 44.449219 32.550781 44 32 44 Z "/>
<path style=" fill:#8D6C9F;" d="M 37 44 C 36.449219 44 36 44.449219 36 45 L 36 47 C 36 47.550781 36.449219 48 37 48 C 37.550781 48 38 47.550781 38 47 L 38 45 C 38 44.449219 37.550781 44 37 44 Z "/>
<path style=" fill:#8D6C9F;" d="M 42 44 C 41.449219 44 41 44.449219 41 45 L 41 47 C 41 47.550781 41.449219 48 42 48 C 42.550781 48 43 47.550781 43 47 L 43 45 C 43 44.449219 42.550781 44 42 44 Z "/>
<path style=" fill:#8D6C9F;" d="M 47 44 C 46.449219 44 46 44.449219 46 45 L 46 47 C 46 47.550781 46.449219 48 47 48 C 47.550781 48 48 47.550781 48 47 L 48 45 C 48 44.449219 47.550781 44 47 44 Z "/>
<path style=" fill:#8D6C9F;" d="M 52 44 C 51.449219 44 51 44.449219 51 45 L 51 47 C 51 47.550781 51.449219 48 52 48 C 52.550781 48 53 47.550781 53 47 L 53 45 C 53 44.449219 52.550781 44 52 44 Z "/>
<path style=" fill:#8D6C9F;" d="M 59.671875 20.921875 C 61.199219 20.570313 62.203125 19.097656 61.964844 17.546875 C 61.730469 15.992188 60.335938 14.886719 58.773438 15.003906 C 57.207031 15.125 55.996094 16.429688 56 18 C 56.003906 18.554688 56.164063 19.097656 56.460938 19.570313 L 42.359375 29.570313 L 33.839844 13.351563 C 34.851563 12.5625 35.25 11.21875 34.832031 10.007813 C 34.414063 8.796875 33.277344 7.984375 31.996094 7.984375 C 30.714844 7.984375 29.574219 8.796875 29.15625 10.007813 C 28.742188 11.21875 29.140625 12.5625 30.148438 13.351563 L 21.589844 29.53125 L 7.589844 19.53125 C 7.859375 19.066406 8.003906 18.539063 8 18 C 8.003906 16.429688 6.792969 15.125 5.226563 15.003906 C 3.664063 14.886719 2.269531 15.992188 2.035156 17.546875 C 1.796875 19.097656 2.800781 20.570313 4.328125 20.921875 L 8 41.089844 L 8 50 L 7 50 C 5.34375 50 4 51.34375 4 53 C 4 54.65625 5.34375 56 7 56 L 57 56 C 58.65625 56 60 54.65625 60 53 C 60 51.34375 58.65625 50 57 50 L 56 50 L 56 41.089844 Z M 59 16.789063 C 59.667969 16.789063 60.210938 17.332031 60.210938 18 C 60.210938 18.667969 59.667969 19.210938 59 19.210938 C 58.332031 19.210938 57.789063 18.667969 57.789063 18 C 57.789063 17.332031 58.332031 16.789063 59 16.789063 Z M 32 9.789063 C 32.667969 9.789063 33.210938 10.332031 33.210938 11 C 33.210938 11.667969 32.667969 12.210938 32 12.210938 C 31.332031 12.210938 30.789063 11.667969 30.789063 11 C 30.789063 10.332031 31.332031 9.789063 32 9.789063 Z M 5 16.789063 C 5.667969 16.789063 6.210938 17.332031 6.210938 18 C 6.210938 18.667969 5.667969 19.210938 5 19.210938 C 4.332031 19.210938 3.789063 18.667969 3.789063 18 C 3.789063 17.332031 4.332031 16.789063 5 16.789063 Z M 58 53 C 58 53.550781 57.550781 54 57 54 L 7 54 C 6.449219 54 6 53.550781 6 53 C 6 52.449219 6.449219 52 7 52 L 57 52 C 57.550781 52 58 52.449219 58 53 Z M 10 50 L 10 42 L 43 42 C 43.550781 42 44 41.550781 44 41 C 44 40.449219 43.550781 40 43 40 L 9.828125 40 L 6.421875 21.230469 L 21.359375 31.820313 C 21.59375 31.984375 21.890625 32.042969 22.167969 31.976563 C 22.449219 31.90625 22.6875 31.722656 22.820313 31.46875 L 32 14.140625 L 41.121094 31.460938 C 41.253906 31.714844 41.492188 31.898438 41.769531 31.964844 C 42.050781 32.03125 42.34375 31.976563 42.578125 31.808594 L 57.578125 21.21875 L 54 40.820313 C 54 40.820313 54 40.878906 54 40.910156 C 54 40.941406 54 41 54 41 L 54 50 Z "/>
<path style=" fill:#8D6C9F;" d="M 47 42 L 51 42 C 51.550781 42 52 41.550781 52 41 C 52 40.449219 51.550781 40 51 40 L 47 40 C 46.449219 40 46 40.449219 46 41 C 46 41.550781 46.449219 42 47 42 Z "/>
<path style=" fill:#8D6C9F;" d="M 32.871094 24.5 C 32.691406 24.1875 32.359375 23.992188 32 23.992188 C 31.640625 23.992188 31.308594 24.1875 31.128906 24.5 L 27.128906 31.5 C 26.90625 31.890625 26.972656 32.382813 27.289063 32.699219 L 31.289063 36.699219 C 31.679688 37.085938 32.308594 37.085938 32.699219 36.699219 L 36.699219 32.699219 C 37.015625 32.382813 37.082031 31.890625 36.859375 31.5 Z M 32 34.589844 L 29.25 31.839844 L 32 27 L 34.75 31.820313 Z "/>
</g>
</svg>
